<svg xmlns="http://www.w3.org/2000/svg" viewBox="0 0 410 404"><path fill="#41D1FF" d="M399.641 59.524 215.643 388.545c-3.806 6.81-13.59 6.845-17.444.06L10.191 59.551c-4.15-7.282 2.088-16.231 10.283-14.774l184.231 32.744a10 10 0 0 0 3.505 0L389.331 44.75c8.169-1.48 14.425 7.404 10.31 14.774Z"/><path fill="#BD34FE" d="M292.965.858 156.54 27.58a5 5 0 0 0-4.004 4.224l-8.387 141.184a5 5 0 0 0 6.067 5.161l37.978-8.764a5 5 0 0 1 6.074 6.084l-11.281 55.304a5 5 0 0 0 6.202 5.856l23.457-6.992a5 5 0 0 1 6.32 5.958l-17.938 87.193c-1.122 5.455 6.137 8.43 9.176 3.761l2.03-3.117 111.157-221.899c1.86-3.715-1.357-7.872-5.453-7.087l-39.083 7.534a5 5 0 0 1-5.733-6.469l25.498-88.27c1.177-4.078-2.6-7.77-6.624-6.981Z"/></svg>
